<?xml version="1.0" encoding="UTF-8" standalone="no"?>
<!-- Created with Inkscape (http://www.inkscape.org/) -->

<svg
   version="1.1"
   id="svg1"
   width="819.20001"
   height="1126.4"
   viewBox="0 0 819.20001 1126.4"
   sodipodi:docname="tedi-cheap.svg"
   inkscape:version="1.3.2 (091e20e, 2023-11-25)"
   xmlns:inkscape="http://www.inkscape.org/namespaces/inkscape"
   xmlns:sodipodi="http://sodipodi.sourceforge.net/DTD/sodipodi-0.dtd"
   xmlns="http://www.w3.org/2000/svg"
   xmlns:svg="http://www.w3.org/2000/svg">
  <defs
     id="defs1" />
  <sodipodi:namedview
     id="namedview1"
     pagecolor="#ffffff"
     bordercolor="#666666"
     borderopacity="1.0"
     inkscape:showpageshadow="2"
     inkscape:pageopacity="0.0"
     inkscape:pagecheckerboard="0"
     inkscape:deskcolor="#d1d1d1"
     inkscape:zoom="0.55732122"
     inkscape:cx="102.27495"
     inkscape:cy="409.99695"
     inkscape:window-width="1392"
     inkscape:window-height="838"
     inkscape:window-x="17"
     inkscape:window-y="3"
     inkscape:window-maximized="0"
     inkscape:current-layer="g1"
     showguides="true">
    <inkscape:page
       x="0"
       y="0"
       inkscape:label="1"
       id="page1"
       width="819.20001"
       height="1126.4"
       margin="0"
       bleed="0" />
  </sodipodi:namedview>
  <g
     id="g1"
     inkscape:groupmode="layer"
     inkscape:label="1">
    <path
       d="m 186.68767,92.758163 c 6.58532,-0.132155 12.63699,2.920966 18.73788,4.981842 7.45477,3.012625 14.98507,5.948625 21.86958,10.151515 2.73094,1.26241 5.10368,3.11151 7.74957,4.49445 7.55029,4.02835 14.56634,8.96626 21.34077,14.17219 7.41083,5.48956 14.42467,11.81154 19.48685,19.58235 4.20558,7.27965 7.13834,15.25132 9.34538,23.34047 1.11819,5.24984 2.03499,10.53894 2.72669,15.85871 1.05399,5.41185 1.15147,10.95614 2.14184,16.38203 0.9596,7.70331 1.70183,15.43357 2.67948,23.13327 0.94193,11.80739 2.30979,23.57958 3.12357,35.39837 0.93267,9.79414 1.55596,19.62559 2.37532,29.4219 0.30814,3.00775 0.19654,6.0447 0.60054,9.05019 1.28962,17.22805 2.38333,34.46848 3.28288,51.72064 1.00318,16.84266 2.1909,33.67807 2.90613,50.5371 0.72201,2.96179 0.84673,6.12977 0.49308,9.13264 0.0489,3.39572 0.46113,6.78414 0.6708,10.17519 0.48636,3.3867 0.25878,6.80208 0.73442,10.19437 1.38798,19.59163 2.33339,39.21282 3.705,58.80543 0.58729,10.33655 1.37408,20.66105 1.89783,31.00223 0.95187,14.54644 1.76006,29.10108 2.41018,43.66375 0.41568,6.21739 1.03304,12.41475 1.26482,18.6444 0.56094,8.09623 0.865,16.20778 1.30223,24.30895 0.33323,3.14531 1.21093,6.18218 0.84296,9.37244 -0.0821,7.68165 0.8597,15.32207 1.17507,22.99079 0.38927,6.14533 0.78453,12.2872 1.17507,18.43167 0.007,8.11374 1.23419,16.16747 1.41476,24.27734 0.93134,11.89173 1.42337,23.80986 2.30439,35.70553 0.79181,11.66069 1.18763,23.34322 2.21875,34.98776 0.88502,12.88886 1.86682,25.78316 2.0967,38.7039 -0.012,4.24767 -5.32323,5.34996 -6.35639,9.00068 -0.36939,3.12545 0.57055,6.2396 0.5139,9.38107 0.2085,4.50687 0.62105,9.07687 0.0263,13.55863 -1.30458,3.00693 -4.42752,4.83102 -5.55522,7.94334 -0.34882,2.59679 -0.48881,5.35261 0.0996,7.92518 1.10584,3.68807 4.38085,5.99592 6.83323,8.71939 1.568,2.90873 1.0163,6.37798 1.55887,9.54494 0.75518,9.38243 0.99534,18.79893 1.55771,28.19184 0.0776,4.66141 -1.38175,9.44309 -4.72038,12.80243 -4.71636,5.77416 -12.80576,9.60435 -20.18601,6.98855 -6.04709,-1.8903 -10.70413,-7.29294 -11.70316,-13.54851 -0.42855,-3.21314 -1.10688,-6.77338 0.20897,-9.83649 1.65958,-2.90642 6.93968,-3.44728 8.57257,-0.30992 0.74308,2.98691 2.04903,6.04682 4.95003,7.52671 3.08339,1.96089 8.02926,1.87316 9.96273,-1.63397 0.25244,-3.57242 1.14747,-7.25919 -0.38101,-10.89434 -0.89467,-3.96083 -3.22936,-7.44126 -5.27876,-10.90298 -4.37964,-7.06615 -11.08267,-12.16633 -17.86102,-16.76148 -3.61757,-2.98024 -3.0709,-8.0825 -3.58482,-12.26593 -0.55136,-7.56309 -0.48203,-15.1931 -1.76756,-22.68661 -1.2148,-3.41905 -5.53593,-3.22135 -8.41018,-4.30585 -4.99214,-1.34691 -10.29994,-1.9341 -14.95008,-4.2785 -3.0444,-2.52151 -0.86199,-7.41678 -3.70321,-10.00689 -2.96146,-1.68022 -6.50663,-1.90019 -9.75848,-2.77903 -15.91371,-3.24516 -31.82936,-6.48025 -47.72637,-9.80778 -15.24378,-3.21575 -30.55468,-6.1203 -45.7696,-9.46493 -3.06837,-0.15376 -4.63373,-2.08384 -4.41342,-5.05228 -1.37974,-13.14673 -1.11245,-26.39186 -1.36308,-39.59107 -0.1008,-8.24742 -0.18074,-16.50933 -0.63201,-24.73725 0.3755,-21.73059 0.17457,-43.47225 0.54372,-65.20528 0.32117,-20.40774 0.61913,-40.81633 1.17827,-61.2196 0.40798,-23.0333 0.70165,-46.07455 1.59986,-69.09424 0.6765,-9.74428 0.50784,-19.51674 1.06245,-29.26517 0.44755,-10.94539 0.49574,-21.90245 1.06093,-32.84447 0.29936,-9.91872 1.20016,-19.80229 1.50627,-29.72086 0.49752,-10.72728 2.09038,-21.3832 2.20444,-32.13335 0.39763,-11.93522 0.63862,-23.88001 1.61503,-35.78693 1.76829,-28.17153 2.95444,-56.38391 5.29625,-84.51641 1.02604,-10.42668 1.93726,-20.86156 2.65223,-31.31424 1.86241,-22.86936 3.96316,-45.71984 6.20173,-68.55525 2.07065,-19.31507 4.31178,-38.61302 7.01826,-57.85069 0.5847,-4.24581 0.95627,-8.713621 2.99264,-12.5508 0.70784,-0.810474 1.79638,-1.155358 2.83216,-1.283077 z"
       id="blade" />
    <path
       id="cuttting_bounding_box"
       style="opacity:0.381625;fill:#cfd000"
       d="M 122.3941,65.039743 H 337.24678 L 349.59468,810.8502 92.75925,761.45878 Z"
       sodipodi:nodetypes="ccccc" />
    <path
       id="intersection"
       d="m 186.6875,92.757812 c -1.03578,0.127719 -2.12419,0.47273 -2.83203,1.283204 -2.03637,3.837175 -2.40749,8.304974 -2.99219,12.550784 -2.70648,19.23765 -4.94888,38.53651 -7.01953,57.85156 -2.23857,22.83539 -4.33876,45.68535 -6.20117,68.55469 -0.71497,10.45267 -1.62631,20.88778 -2.65235,31.31445 -2.3418,28.13247 -3.52858,56.34412 -5.29687,84.51562 -0.97641,11.90691 -1.21565,23.85191 -1.61328,35.78711 -0.11406,10.75014 -1.70756,21.40555 -2.20508,32.13282 -0.30611,9.91856 -1.2065,19.80394 -1.50586,29.72265 -0.56519,10.94201 -0.613,21.89837 -1.06055,32.84375 -0.55461,9.74842 -0.386,19.52136 -1.0625,29.26563 -0.89821,23.01967 -1.19358,46.06047 -1.60156,69.09375 -0.55914,20.40325 -0.85656,40.81103 -1.17773,61.21875 -0.36915,21.73301 -0.16747,43.47451 -0.54297,65.20508 0.45127,8.22791 0.53006,16.49087 0.63086,24.73828 0.25063,13.19919 -0.0165,26.44508 1.36328,39.59179 -0.22031,2.96844 1.34569,4.89703 4.41406,5.05079 0.309,0.0679 0.62062,0.12383 0.92969,0.1914 l 166.32812,31.98633 c -0.21056,-1.75933 -0.39351,-3.51579 -0.18554,-5.27539 1.03316,-3.65072 6.34347,-4.75429 6.35547,-9.00195 -0.22988,-12.92073 -1.21069,-25.81428 -2.09571,-38.70313 -1.03112,-11.64453 -1.42694,-23.3276 -2.21875,-34.98828 -0.88102,-11.89566 -1.37335,-23.81336 -2.30469,-35.70508 -0.18056,-8.10986 -1.40706,-16.16361 -1.41406,-24.27734 -0.39054,-6.14447 -0.78651,-12.28632 -1.17578,-18.43164 -0.31537,-7.66871 -1.25788,-15.30859 -1.17578,-22.99024 0.36797,-3.19025 -0.50857,-6.22774 -0.8418,-9.37304 -0.43723,-8.10117 -0.74179,-16.21238 -1.30273,-24.3086 -0.23178,-6.22964 -0.84995,-12.42714 -1.26563,-18.64453 -0.65012,-14.56265 -1.45828,-29.11764 -2.41015,-43.66406 -0.52375,-10.34117 -1.3092,-20.66541 -1.89649,-31.00195 -1.37161,-19.59259 -2.3171,-39.21308 -3.70508,-58.80469 -0.47563,-3.39229 -0.24801,-6.80862 -0.73437,-10.19531 -0.20967,-3.39105 -0.62298,-6.78007 -0.67187,-10.17579 0.35364,-3.00286 0.22982,-6.17102 -0.49219,-9.13281 -0.71523,-16.85901 -1.90307,-33.69446 -2.90625,-50.53711 -0.89955,-17.25214 -1.99359,-34.49267 -3.28321,-51.7207 -0.404,-3.00549 -0.29342,-6.04108 -0.60156,-9.04883 -0.81936,-9.7963 -1.44233,-19.62774 -2.375,-29.42187 -0.81378,-11.81878 -2.18112,-23.59106 -3.12305,-35.39844 -0.97764,-7.69969 -1.72008,-15.42951 -2.67968,-23.13281 -0.99037,-5.42589 -1.08664,-10.97097 -2.14063,-16.38282 -0.6917,-5.31976 -1.61032,-10.60954 -2.72851,-15.85937 -2.20704,-8.08914 -5.13818,-16.0602 -9.34375,-23.33985 -5.06218,-7.7708 -12.07746,-14.09247 -19.48828,-19.58203 -6.77443,-5.20592 -13.78957,-10.14353 -21.33985,-14.17187 -2.64589,-1.38294 -5.01906,-3.23369 -7.75,-4.4961 -6.8845,-4.20288 -14.41438,-7.13776 -21.86914,-10.150386 -6.10088,-2.060874 -12.15297,-5.114576 -18.73828,-4.982422 z" />
  </g>
</svg>
